<?xml version="1.0"?>
<svg xmlns="http://www.w3.org/2000/svg" viewBox="0 0 80 80">
    <path style="line-height:normal;text-indent:0;text-align:start;text-decoration-line:none;text-decoration-style:solid;text-decoration-color:#000;text-transform:none;block-progression:tb;isolation:auto;mix-blend-mode:normal" d="M 14 11 C 11.802666 11 10 12.802666 10 15 L 10 65 C 10 67.197334 11.802666 69 14 69 L 36 69 L 36 67 L 14 67 C 12.883334 67 12 66.116666 12 65 L 12 15 C 12 13.883334 12.883334 13 14 13 L 50 13 C 51.116666 13 52 13.883334 52 15 L 52 19 L 54 19 L 54 15 C 54 12.802666 52.197334 11 50 11 L 14 11 z M 25 15 A 1 1 0 0 0 24 16 A 1 1 0 0 0 25 17 A 1 1 0 0 0 26 16 A 1 1 0 0 0 25 15 z M 29 15 A 1.0001 1.0001 0 1 0 29 17 L 35 17 A 1.0001 1.0001 0 1 0 35 15 L 29 15 z M 42 21 C 39.802666 21 38 22.802666 38 25 L 38 67 C 38 69.197334 39.802666 71 42 71 L 66 71 C 68.197334 71 70 69.197334 70 67 L 70 25 C 70 22.802666 68.197334 21 66 21 L 42 21 z M 42 23 L 66 23 C 67.116666 23 68 23.883334 68 25 L 68 67 C 68 68.116666 67.116666 69 66 69 L 42 69 C 40.883334 69 40 68.116666 40 67 L 40 25 C 40 23.883334 40.883334 23 42 23 z M 48 25 A 1 1 0 0 0 47 26 A 1 1 0 0 0 48 27 A 1 1 0 0 0 49 26 A 1 1 0 0 0 48 25 z M 52 25 A 1.0001 1.0001 0 1 0 52 27 L 56 27 A 1.0001 1.0001 0 1 0 56 25 L 52 25 z M 32 60 A 2 2 0 0 0 30 62 A 2 2 0 0 0 32 64 A 2 2 0 0 0 34 62 A 2 2 0 0 0 32 60 z M 54 63 A 2 2 0 0 0 52 65 A 2 2 0 0 0 54 67 A 2 2 0 0 0 56 65 A 2 2 0 0 0 54 63 z" font-weight="400" font-family="sans-serif" white-space="normal" overflow="visible"/>
</svg>
