<?xml version="1.0" encoding="utf-8"?><!DOCTYPE svg PUBLIC "-//W3C//DTD SVG 1.1//EN" "http://www.w3.org/Graphics/SVG/1.1/DTD/svg11.dtd"><svg xmlns="http://www.w3.org/2000/svg" xmlns:xlink="http://www.w3.org/1999/xlink"><symbol viewBox="0 0 24 24" id="dribbble" xmlns="http://www.w3.org/2000/svg"><path d="M12 24C5.385 24 0 18.615 0 12S5.385 0 12 0s12 5.385 12 12-5.385 12-12 12zm10.12-10.358c-.35-.11-3.17-.953-6.384-.438 1.34 3.684 1.887 6.684 1.992 7.308a10.28 10.28 0 0 0 4.395-6.87zm-6.115 7.808c-.153-.9-.75-4.032-2.19-7.77l-.066.02c-5.79 2.015-7.86 6.025-8.04 6.4a10.161 10.161 0 0 0 6.29 2.166c1.42 0 2.77-.29 4-.814zm-11.62-2.58c.232-.4 3.045-5.055 8.332-6.765.135-.045.27-.084.405-.12-.26-.585-.54-1.167-.832-1.74C7.17 11.775 2.206 11.71 1.756 11.7l-.004.312c0 2.633.998 5.037 2.634 6.855zm-2.42-8.955c.46.008 4.683.026 9.477-1.248a65.473 65.473 0 0 0-3.8-5.928 10.275 10.275 0 0 0-5.676 7.17zM9.6 2.052c.282.38 2.145 2.914 3.822 6 3.645-1.365 5.19-3.44 5.373-3.702A10.19 10.19 0 0 0 12 1.764c-.825 0-1.63.1-2.4.285zm10.335 3.483c-.218.29-1.935 2.493-5.724 4.04.24.49.47.985.68 1.486.08.18.15.36.22.53 3.41-.43 6.8.26 7.14.33-.02-2.42-.88-4.64-2.31-6.38z"/></symbol><symbol id="editing" viewBox="0 0 32 32" xmlns="http://www.w3.org/2000/svg"><defs><style>.bcls-1,.bcls-2{fill:none;stroke:#0832ff;stroke-linecap:round;stroke-linejoin:round}.bcls-1{stroke-width:2px}.bcls-3{fill:#0832ff}</style></defs><path class="bcls-1" d="M5 7h22v18H5z"/><path class="bcls-2" d="M5.13 23l4.81-4.81L12.75 21l6.38-6.37 7.75 7.75"/><circle class="bcls-3" cx="13" cy="13" r="2.5"/><path class="bcls-3" d="M25 7h2v18h-2z"/></symbol><symbol viewBox="0 0 24 24" id="facebook" xmlns="http://www.w3.org/2000/svg"><path d="M5 3h14c1.1 0 2 .9 2 2v14c0 1.1-.9 2-2 2H5c-1.1 0-2-.9-2-2V5c0-1.1.9-2 2-2m13 2h-2.5C13.57 5 12 6.57 12 8.5V11h-2v3h2v7h3v-7h3v-3h-3V9c0-.55.45-1 1-1h2V5z"/></symbol><symbol viewBox="0 0 332.396 332.396" id="monitor" xmlns="http://www.w3.org/2000/svg"><path d="M317.055 32.986H15.334C6.883 32.986 0 39.862 0 48.32v186.494c0 8.458 6.877 15.354 15.334 15.354h114.333v34.981h-33.56v14.261h140.176v-14.261h-33.561v-34.988h114.333c8.458 0 15.341-6.89 15.341-15.354V48.32c0-8.458-6.877-15.334-15.341-15.334zm2.487 201.822c0 1.382-1.118 2.5-2.487 2.5H15.334a2.49 2.49 0 0 1-2.481-2.5V48.32a2.483 2.483 0 0 1 2.481-2.481h301.721a2.488 2.488 0 0 1 2.487 2.481v186.488z"/></symbol><symbol viewBox="0 0 80 80" id="phone" xmlns="http://www.w3.org/2000/svg"><path style="line-height:normal;text-indent:0;text-align:start;text-decoration-line:none;text-decoration-style:solid;text-decoration-color:#000;text-transform:none;block-progression:tb;isolation:auto;mix-blend-mode:normal" d="M14 11c-2.197 0-4 1.803-4 4v50c0 2.197 1.803 4 4 4h22v-2H14c-1.117 0-2-.883-2-2V15c0-1.117.883-2 2-2h36c1.117 0 2 .883 2 2v4h2v-4c0-2.197-1.803-4-4-4H14zm11 4a1 1 0 0 0-1 1 1 1 0 0 0 1 1 1 1 0 0 0 1-1 1 1 0 0 0-1-1zm4 0a1 1 0 1 0 0 2h6a1 1 0 1 0 0-2h-6zm13 6c-2.197 0-4 1.803-4 4v42c0 2.197 1.803 4 4 4h24c2.197 0 4-1.803 4-4V25c0-2.197-1.803-4-4-4H42zm0 2h24c1.117 0 2 .883 2 2v42c0 1.117-.883 2-2 2H42c-1.117 0-2-.883-2-2V25c0-1.117.883-2 2-2zm6 2a1 1 0 0 0-1 1 1 1 0 0 0 1 1 1 1 0 0 0 1-1 1 1 0 0 0-1-1zm4 0a1 1 0 1 0 0 2h4a1 1 0 1 0 0-2h-4zM32 60a2 2 0 0 0-2 2 2 2 0 0 0 2 2 2 2 0 0 0 2-2 2 2 0 0 0-2-2zm22 3a2 2 0 0 0-2 2 2 2 0 0 0 2 2 2 2 0 0 0 2-2 2 2 0 0 0-2-2z" font-weight="400" font-family="sans-serif" overflow="visible"/></symbol><symbol viewBox="0 0 32 32" id="strategy" xmlns="http://www.w3.org/2000/svg"><path fill="none" d="M0 0h32v32H0z"/><path d="M24 28V12h-4v16h-2V4h-4v24h-2v-6H8v6H4V2H2v28h28v-2z"/></symbol><symbol viewBox="0 0 24 24" id="twitter" xmlns="http://www.w3.org/2000/svg"><path d="M22.46 6c-.77.35-1.6.58-2.46.69.88-.53 1.56-1.37 1.88-2.38-.83.5-1.75.85-2.72 1.05C18.37 4.5 17.26 4 16 4c-2.35 0-4.27 1.92-4.27 4.29 0 .34.04.67.11.98C8.28 9.09 5.11 7.38 3 4.79c-.37.63-.58 1.37-.58 2.15 0 1.49.75 2.81 1.91 3.56-.71 0-1.37-.2-1.95-.5v.03c0 2.08 1.48 3.82 3.44 4.21a4.22 4.22 0 0 1-1.93.07 4.28 4.28 0 0 0 4 2.98 8.521 8.521 0 0 1-5.33 1.84c-.34 0-.68-.02-1.02-.06C3.44 20.29 5.7 21 8.12 21 16 21 20.33 14.46 20.33 8.79c0-.19 0-.37-.01-.56.84-.6 1.56-1.36 2.14-2.23z"/></symbol></svg>